<?xml version="1.0" standalone="no"?>
<!DOCTYPE svg PUBLIC "-//W3C//DTD SVG 20010904//EN"
 "http://www.w3.org/TR/2001/REC-SVG-20010904/DTD/svg10.dtd">
<svg version="1.0" xmlns="http://www.w3.org/2000/svg"
 width="260.000000pt" height="260.000000pt" viewBox="0 0 260.000000 260.000000"
 preserveAspectRatio="xMidYMid meet">
<metadata>
Created by potrace 1.14, written by Peter Selinger 2001-2017
</metadata>
<g transform="translate(0.000000,260.000000) scale(0.100000,-0.100000)"
fill="#000000" stroke="none">
<path d="M2191 2322 c9 -37 15 -84 13 -105 -5 -47 -30 -97 -49 -97 -15 0 -29
-35 -34 -82 -1 -5 -8 -8 -16 -8 -8 0 -16 -7 -16 -15 -2 -24 -4 -29 -12 -43 -5
-7 -6 -21 -2 -31 4 -12 0 -21 -11 -25 -11 -4 -15 -14 -12 -31 8 -39 -10 -18
-22 25 -6 22 -17 40 -24 40 -7 0 -26 18 -41 39 -15 23 -32 38 -40 35 -7 -3
-18 4 -25 15 -6 12 -18 21 -26 21 -9 0 -24 10 -33 22 -21 25 -51 19 -51 -12 0
-24 -8 -25 -38 -4 -12 8 -26 12 -32 9 -5 -3 -19 0 -30 7 -17 11 -22 11 -29 -1
-7 -11 -15 -12 -38 -3 -15 6 -41 11 -58 11 -16 0 -48 2 -70 5 -69 10 -161 13
-180 6 -16 -5 -13 -8 12 -13 17 -3 43 -18 58 -32 16 -14 32 -25 36 -25 5 0 9
-7 9 -15 0 -8 9 -19 20 -25 11 -6 17 -16 14 -25 -3 -8 3 -29 15 -48 11 -18 18
-42 15 -53 -3 -12 1 -26 10 -33 9 -8 16 -19 16 -26 0 -7 7 -18 15 -25 13 -11
12 -16 -11 -43 l-25 -30 30 -20 c17 -10 31 -25 31 -33 0 -8 5 -14 10 -14 6 0
15 -11 20 -24 5 -15 23 -29 44 -37 20 -7 36 -19 36 -26 0 -8 12 -13 32 -13 31
0 31 -14 0 -16 -9 0 -29 -4 -45 -8 -21 -6 -25 -11 -17 -21 8 -10 6 -15 -9 -20
-12 -3 -21 -11 -21 -16 0 -6 -13 -15 -30 -20 -16 -6 -30 -17 -30 -25 0 -8 -9
-14 -19 -14 -11 0 -26 -7 -35 -15 -8 -8 -18 -15 -22 -15 -4 0 -32 -12 -63 -26
-66 -32 -122 -85 -72 -69 11 3 36 7 56 9 29 3 35 1 31 -11 -5 -11 1 -13 24 -9
20 3 30 0 30 -8 0 -7 19 -17 43 -22 26 -6 42 -15 42 -24 0 -9 9 -14 23 -13 12
2 22 -2 22 -7 0 -5 10 -9 22 -7 12 1 23 -4 24 -10 1 -7 2 -18 3 -23 0 -6 7
-10 14 -9 6 1 37 -1 68 -5 l56 -8 -2 -41 c-1 -23 -5 -52 -9 -64 -7 -21 -5 -22
26 -16 18 3 41 10 51 15 10 5 17 5 17 -1 0 -7 9 -7 22 -2 14 5 29 4 39 -2 12
-8 25 -5 51 11 20 12 43 19 55 16 15 -4 32 5 61 33 37 35 43 38 56 24 14 -13
18 -10 36 33 12 26 27 49 34 52 14 5 12 59 -5 129 -5 22 -11 47 -13 56 -4 15
0 15 41 3 26 -8 58 -14 73 -14 41 0 120 30 120 46 0 8 5 14 10 14 6 0 24 12
40 28 17 15 37 33 45 40 9 8 13 21 10 32 -3 11 1 40 10 66 12 35 13 49 4 54
-8 6 -8 13 0 29 7 12 9 26 6 32 -4 5 -2 15 3 22 9 12 26 97 19 97 -2 0 -18 -7
-36 -16 -17 -9 -46 -17 -64 -19 -17 -2 -42 -6 -55 -9 -20 -4 -22 -2 -15 17 12
34 10 109 -4 139 -7 15 -13 40 -13 57 0 25 -4 30 -27 33 -21 2 -29 10 -35 36
-5 17 -15 32 -22 32 -8 0 -17 14 -21 30 -4 17 -11 28 -16 24 -5 -3 -9 -2 -10
3 -6 67 -15 99 -45 160 -48 95 -65 101 -43 15z"/>
<path d="M1087 1754 c-7 -7 -37 -12 -102 -18 -22 -3 -44 -5 -50 -7 -5 -1 -18
1 -27 5 -10 5 -35 -1 -61 -12 -25 -11 -50 -16 -57 -12 -16 10 -77 -15 -109
-43 -17 -16 -25 -18 -28 -9 -8 21 -40 13 -58 -15 -9 -16 -28 -38 -42 -49 -21
-18 -25 -30 -26 -80 0 -33 3 -72 7 -89 l7 -29 -23 19 c-47 41 -120 159 -139
228 -20 70 -42 86 -53 41 -5 -19 -2 -33 12 -48 10 -11 37 -53 59 -91 23 -39
64 -92 92 -118 27 -26 49 -47 47 -47 -2 0 -25 9 -51 21 -31 14 -67 21 -102 20
-60 0 -123 -17 -123 -32 0 -5 -15 -16 -33 -24 -102 -49 -109 -55 -104 -83 3
-16 -2 -36 -12 -52 -25 -36 -43 -90 -29 -90 6 0 3 -11 -6 -25 -10 -14 -16 -34
-15 -43 1 -9 -7 -37 -18 -62 -22 -49 -36 -90 -31 -90 2 0 32 9 67 20 42 13 67
17 71 10 4 -6 17 -6 38 2 40 16 47 7 29 -34 -15 -33 -18 -123 -4 -145 4 -6 10
-33 13 -59 7 -61 11 -67 39 -60 20 5 24 1 34 -40 8 -31 18 -48 31 -51 13 -3
24 -20 32 -47 7 -22 18 -47 25 -54 7 -7 13 -21 13 -31 0 -42 110 -211 137
-211 9 0 5 16 -14 53 -23 44 -27 64 -28 135 l0 82 38 35 c20 19 38 40 38 47 1
7 2 18 4 23 1 6 3 18 3 27 1 9 11 20 22 23 13 4 20 15 20 30 0 13 5 27 11 31
6 3 9 18 6 33 -4 20 0 30 14 39 16 10 19 20 14 50 l-6 37 14 -31 c8 -17 18
-45 22 -62 4 -21 13 -32 24 -32 10 0 30 -18 45 -40 15 -22 34 -40 45 -40 10 0
26 -9 35 -19 10 -11 23 -18 30 -15 7 3 21 -4 31 -16 27 -30 54 -26 61 9 6 29
7 29 39 15 18 -7 35 -11 37 -8 3 2 17 0 31 -5 22 -9 28 -7 37 8 8 17 14 18 40
8 22 -8 35 -9 48 -1 9 6 26 8 37 4 36 -13 200 2 218 19 5 5 -5 11 -21 14 -16
3 -36 12 -43 20 -8 7 -22 16 -32 20 -10 4 -15 12 -12 18 4 6 -3 17 -15 26 -12
9 -19 21 -16 30 3 8 -3 32 -15 54 -15 31 -17 44 -9 54 9 11 6 19 -10 35 -12
12 -19 24 -16 28 3 3 -1 14 -11 24 -15 17 -15 20 10 46 33 35 34 45 2 62 -14
7 -25 22 -25 32 0 10 -7 18 -16 18 -10 0 -14 6 -11 14 7 19 -12 34 -52 42 -22
5 -30 11 -27 21 4 9 0 14 -12 12 -55 -5 -63 3 -13 17 66 18 74 22 67 40 -3 8
-1 14 4 14 6 0 19 9 29 19 11 11 34 27 50 36 17 8 31 19 31 23 0 5 16 14 35
21 19 7 35 16 35 21 0 4 12 13 28 19 110 44 234 141 135 105 -46 -16 -77 -18
-68 -3 5 7 -5 8 -29 4 -32 -6 -35 -5 -29 11 4 12 3 15 -5 10 -18 -11 -82 5
-82 20 0 10 -7 13 -25 8 -15 -4 -25 -2 -25 5 0 7 -8 8 -23 2 -21 -8 -23 -7
-19 14 4 22 2 23 -47 19 -30 -3 -51 -1 -51 5 0 6 -11 6 -29 1 -26 -7 -28 -6
-28 16 0 13 4 24 9 24 5 0 6 4 3 10 -3 5 2 21 11 35 15 23 16 44 1 29z"/>
<path d="M2265 1328 c49 -50 118 -149 141 -203 16 -39 31 -38 39 3 2 14 -3 27
-15 35 -11 8 -42 43 -69 79 -46 60 -116 128 -132 128 -4 0 12 -19 36 -42z"/>
</g>
</svg>
